<svg xmlns="http://www.w3.org/2000/svg" version="1.1" xmlns:xlink="http://www.w3.org/1999/xlink" xmlns:svgjs="http://svgjs.com/svgjs" width="1000" height="1000"><rect width="1000" height="1000" rx="250" ry="250" fill="#ffffff"></rect><g transform="matrix(1.0085315719800076,0,0,1.0085315719800076,180.0263070748403,49.9999996605805)"><svg xmlns="http://www.w3.org/2000/svg" version="1.1" xmlns:xlink="http://www.w3.org/1999/xlink" xmlns:svgjs="http://svgjs.com/svgjs" width="634.53381" height="892.38654"><svg version="1.1" id="svg690" width="634.53381" height="892.38654" viewBox="0 0 634.53381 892.38654" xmlns="http://www.w3.org/2000/svg" xmlns:svg="http://www.w3.org/2000/svg">
  <defs id="defs694"></defs>
  <g id="g696" transform="translate(-167.69554,-55.610985)">
    <g id="g817" transform="matrix(1.3885103,0,0,1.3885103,-181.46836,-310.09153)">
      <path style="fill:#f4fafa" d="m 463.40063,535.80741 c 1.35765,-3.57089 0.43224,-5.41311 -5.36031,-10.67076 l -5.13639,-4.66208 v -8.01293 c 0,-8.59656 -1.18715,-11.34697 -6.66189,-15.43445 -3.16739,-2.3648 -10.42904,-2.50848 -14.71681,-0.29119 -4.5556,2.3558 -7.49901,8.72578 -6.79166,14.69822 1.74871,14.76508 16.06555,26.58988 32.44511,26.79761 4.73037,0.06 5.37251,-0.19022 6.22195,-2.42442 z" id="path1099"></path>
      <path style="fill:#f4fafa" d="m 571.40393,612.75402 c -15.23033,-1.69271 -34.13275,-5.62804 -46.3781,-9.65556 -21.4318,-7.04895 -34.71635,-17.25412 -47.03736,-36.13401 l -6.82848,-10.46351 -9.62803,0.5262 c -5.74147,0.31379 -11.93682,0.0451 -15.34751,-0.66567 -17.05892,-3.55486 -32.53851,-17.82651 -37.79528,-34.84595 -5.19776,-16.82839 1.06964,-33.40576 15.51476,-41.03675 4.20709,-2.2225 6.26866,-2.6397 13,-2.63085 10.15337,0.0134 15.61822,2.48807 24.10775,10.91699 5.81151,5.77001 10.34417,13.47142 15.76359,26.78382 1.49738,3.6782 1.62941,3.75 6.89613,3.75 9.67179,0 24.31381,-5.82218 30.26584,-12.03477 l 2.75242,-2.8729 -6.47316,-6.29617 c -7.93142,-7.71455 -11.4124,-14.53467 -13.0088,-25.48753 -1.67864,-11.51716 0.16422,-19.18374 9.15403,-38.08205 8.35332,-17.56027 10.50082,-25.92029 9.69114,-37.72658 -0.87465,-12.75365 -6.62777,-26.6402 -13.55769,-32.72474 l -3.51594,-3.08704 -2.03765,2.81878 c -6.66908,9.2256 -8.77301,11.50014 -15.07217,16.2944 -13.05732,9.93785 -20.79795,12.94332 -50.96549,19.7885 -8.8,1.99677 -18.82364,4.90773 -22.27476,6.4688 l -6.27476,2.83832 3.65114,-4.45573 c 2.00813,-2.45065 6.70944,-6.48889 10.44737,-8.97386 6.72644,-4.47173 8.26532,-5.04341 39.95101,-14.84148 13.67311,-4.2281 23.66405,-10.0034 33,-19.07578 l 6.5,-6.31649 8,0.95493 c 4.4,0.52521 16.775,0.7269 27.5,0.44819 19.43515,-0.50505 25.66091,-1.37974 38.5826,-5.42069 l 6.0826,-1.90219 8.89814,15.59304 c 8.1768,14.32895 17.40275,28.87486 23.31721,36.76261 1.69044,2.25444 2.19485,3.89387 1.74702,5.67817 -0.55633,2.21662 -1.29877,2.57737 -6.37859,3.09938 -17.2606,1.77372 -34.81134,8.13007 -44.03429,15.94788 -8.72717,7.39757 -19.39265,21.84547 -17.50016,23.70645 1.27036,1.24922 21.12142,5.03361 29.55176,5.63373 14.81534,1.05463 27.92478,-5.05254 36.31008,-16.91542 l 3.76029,-5.31976 18.17605,18.5 c 23.29308,23.70823 31.66459,32.66182 31.49251,33.68219 -0.0759,0.44979 -7.38353,3.74281 -16.23925,7.31781 -8.85573,3.575 -16.54213,7.21785 -17.0809,8.09522 -1.41494,2.3042 -0.026,6.64931 2.57674,8.06107 1.231,0.66771 3.76141,1.46819 5.62312,1.77886 3.13558,0.52324 3.66512,1.19099 7.18861,9.06485 2.09203,4.675 3.82089,8.95 3.84193,9.5 0.021,0.55 -2.98885,2.70832 -6.68862,4.79626 -6.42504,3.62593 -16.85128,12.41264 -15.88058,13.38335 0.25362,0.25361 4.31805,-0.30487 9.03209,-1.24107 7.06646,-1.40338 9.09773,-1.48398 11.57185,-0.45916 4.56396,1.89045 5.11672,6.73868 1.56746,13.74822 -3.67706,7.26193 -3.08881,10.98081 3.55887,22.49925 4.41048,7.64204 5.23922,9.86361 5.18669,13.9038 -0.0854,6.56817 -3.15593,11.24735 -9.61682,14.655 l -5.14641,2.71435 -28.5,0.17227 c -18.78622,0.11356 -32.76043,-0.30123 -41,-1.21698 z" id="path1097"></path>
      <path style="fill:#f4fafa" d="m 543.2237,695.55877 c -6.35544,-0.33131 -6.70544,-0.4798 -7.19871,-3.05414 -0.28516,-1.48824 -1.50644,-7.49544 -2.71395,-13.34933 l -2.19548,-10.64344 -11.60582,-2.65644 c -30.14242,-6.89927 -71.44639,-20.05173 -108.60581,-34.58343 -11,-4.30171 -21.2558,-8.13385 -22.79067,-8.51589 -2.76201,-0.68747 -2.74147,-0.71756 2,-2.92921 2.63487,-1.22904 7.17933,-4.1318 10.09881,-6.4506 l 5.30814,-4.21598 10.69186,4.49369 c 12.15595,5.10904 16.87845,6.80289 48.19186,17.28533 32.54266,10.89395 52.15012,16.62946 68.19742,19.9489 l 8.69742,1.7991 2.01168,4.84064 c 1.10643,2.66235 2.98861,8.98742 4.18263,14.0557 1.19402,5.06828 2.95934,12.44978 3.92294,16.40334 1.52006,6.23667 1.5582,7.26264 0.28816,7.75 -0.8051,0.30894 -1.53952,0.47358 -1.63204,0.36586 -0.0925,-0.10772 -3.17431,-0.35257 -6.84844,-0.5441 z" id="path1095"></path>
      <path style="fill:#f4fafa" d="m 498.23487,905.30292 c 15.10203,-0.92953 32.3923,-3.55726 43.16906,-6.56072 3.025,-0.84306 6.625,-1.75273 8,-2.0215 12.22733,-2.39 51.54944,-17.17542 56.81578,-21.36317 1.93954,-1.54231 1.94024,-1.65404 0.0659,-10.5588 -4.4544,-21.1622 -14.84774,-45.95851 -25.14892,-60 l -4.40175,-6 0.67184,-8 c 0.59508,-7.08611 1.32887,-9.29642 6.42338,-19.34857 3.82572,-7.54866 6.53314,-14.58022 8.08579,-21 1.28383,-5.30829 2.66344,-11.00143 3.06579,-12.65143 0.69783,-2.86175 0.79289,-2.74654 2.06274,2.5 5.68761,23.49908 12.24278,78.48581 13.91818,116.75 0.48183,11.00429 1.00879,15.25 1.89277,15.25 1.7976,0 26.55578,-16.5196 37.44448,-24.98438 5.16778,-4.01739 14.34361,-12.07688 20.39073,-17.90998 13.26918,-12.79956 37.71329,-41.22162 37.71329,-43.85063 0,-1.06878 1.89362,0.29373 -58,-41.73246 -23.925,-16.78771 -48.5625,-34.20389 -54.75,-38.70264 l -11.25,-8.17953 v -15.63869 c 0,-18.31105 1.03352,-22.88687 7.27129,-32.19293 7.57377,-11.29921 19.36894,-17.22377 40.42045,-20.30265 13.2778,-1.94194 20.04502,-4.56482 26.30968,-10.1973 8.38997,-7.5433 11.69225,-16.40251 9.99689,-26.8192 -0.99752,-6.12897 -2.58326,-9.7726 -7.88096,-18.1084 l -3.25317,-5.11878 2.56791,-6.10108 c 3.19493,-7.59082 3.21689,-10.5405 0.12393,-16.64987 -2.1651,-4.27663 -2.29295,-5.12323 -1.12044,-7.41948 2.86995,-5.62046 2.77745,-8.34624 -0.50619,-14.91738 -1.72274,-3.44752 -3.36122,-7.97526 -3.64106,-10.06166 -0.48385,-3.60737 -0.22673,-4.03431 5.24144,-8.70321 20.94247,-17.88134 20.96026,-18.10064 2.97023,-36.62932 -36.42498,-37.51559 -42.49928,-44.11161 -42.4871,-46.1363 0.007,-1.17927 0.9071,-4.99672 2,-8.48322 2.97187,-9.48062 2.6935,-11.23728 -2.77004,-17.48078 -4.91268,-5.61399 -16.98491,-25.20964 -25.53962,-41.45592 l -4.8843,-9.27579 5.89227,-6.29886 c 9.37444,-10.0213 12.48607,-22.80587 8.69341,-35.71806 -5.69758,-19.39754 -21.34347,-33.44601 -42.91205,-38.53081 -7.53638,-1.7767 -7.74582,-1.77483 -9.10321,0.0815 -0.76415,1.04503 -1.38936,3.47197 -1.38936,5.39321 0,4.61103 -3.38179,11.42319 -7.32791,14.76109 -9.63604,8.15083 -23.12476,10.80763 -51.17209,10.07908 -43.15158,-1.1209 -71.96829,4.19608 -102,18.82003 -28.09101,13.67894 -48.41938,31.20505 -58.36276,50.31749 -3.18439,6.1208 -5.27184,8.70707 -9.97659,12.36064 -17.80287,13.82517 -25.79761,31.54894 -28.41523,62.99451 -3.13971,37.71753 9.33724,80.36348 32.78996,112.07541 3.5728,4.83102 12.0847,15.49442 18.91533,23.69645 16.62684,19.96506 22.02423,28.52946 26.49505,42.04147 1.44363,4.36305 2.07416,8.52969 1.93101,12.76053 -0.1169,3.45516 0.2005,6.65534 0.70534,7.11152 1.65957,1.4996 55.54445,26.7382 73.41789,34.38747 19.88975,8.51219 42.92028,16.45838 60.5,20.87422 6.6,1.65785 12.225,3.23838 12.5,3.51228 0.275,0.27391 0.725,15.48247 1,33.7968 l 0.5,33.29878 -2.5,-0.94534 c -12.03232,-4.54989 -50.55576,-29.18438 -65.96128,-42.18011 -12.79658,-10.79488 -13.08125,-10.9952 -14.13196,-9.94449 -2.57111,2.57111 24.75108,31.64112 43.6648,46.45806 15.50712,12.14823 24.75037,18.1355 40.84575,26.45766 l 14.08269,7.28149 4.2031,8.47491 c 3.4854,7.02777 4.0588,8.97803 3.35805,11.42141 -0.46477,1.62057 -1.41114,8.7037 -2.10304,15.74028 -1.55859,15.85088 -0.73241,38.47403 2.00758,54.97295 1.09606,6.6 2.00217,12.65477 2.01358,13.45503 0.0114,0.80027 -2.96934,-3.02473 -6.62387,-8.5 -3.65454,-5.47525 -21.1822,-29.30502 -38.95037,-52.95502 -39.55758,-52.6524 -34.99896,-46.7425 -96.41907,-125 -7.76997,-9.9 -17.63372,-22.5 -21.91942,-28 -4.28571,-5.5 -9.65162,-12.025 -11.92424,-14.5 l -4.13203,-4.5 -2.52766,3 c -3.51021,4.16615 -22.19767,31.46103 -27.5594,40.2532 -13.6681,22.41298 -11.18284,19.99515 -61.61989,59.94802 -12.63761,10.01068 -23.48374,18.81125 -24.10252,19.55683 -1.15364,1.39005 4.90312,9.74212 18.66758,25.74195 9.28619,10.79428 10.21075,11.7326 22.13162,22.4611 14.72244,13.24984 19.05673,16.6198 35.79512,27.83108 40.28115,26.98007 86.58647,42.63521 136.20488,46.04882 9.64534,0.66357 19.10842,0.56936 33.83094,-0.33681 z" id="path1093"></path>
      <path style="fill:#b9cdd8" d="m 473.15393,905.56149 c 2.8875,-0.202 7.6125,-0.202 10.5,0 2.8875,0.202 0.525,0.36728 -5.25,0.36728 -5.775,0 -8.1375,-0.16528 -5.25,-0.36728 z m -18.48097,-0.95575 c 0.97297,-0.25354 2.32297,-0.23687 3,0.0371 0.67703,0.27393 -0.11903,0.48137 -1.76903,0.46099 -1.65,-0.0204 -2.20394,-0.2445 -1.23097,-0.49804 z m 47.49263,-0.0143 c 1.24391,-0.23919 3.04391,-0.23011 4,0.0202 0.95609,0.25029 -0.0617,0.446 -2.26166,0.4349 -2.2,-0.0111 -2.98225,-0.21589 -1.73834,-0.45508 z m -56.49263,-0.98573 c 0.97297,-0.25354 2.32297,-0.23687 3,0.0371 0.67703,0.27393 -0.11903,0.48137 -1.76903,0.46099 -1.65,-0.0204 -2.20394,-0.2445 -1.23097,-0.49804 z m 67,0 c 0.97297,-0.25354 2.32297,-0.23687 3,0.0371 0.67703,0.27393 -0.11903,0.48137 -1.76903,0.46099 -1.65,-0.0204 -2.20394,-0.2445 -1.23097,-0.49804 z m -78.26903,-1.30698 c -1.95899,-0.62738 -2.0672,-0.79661 -0.5,-0.78201 1.1,0.0103 3.35,0.36216 5,0.78201 2.69472,0.68569 2.7456,0.76527 0.5,0.78201 -1.375,0.0102 -3.625,-0.34166 -5,-0.78201 z m 85.8125,0.31689 c 0.72187,-0.28887 1.58438,-0.25335 1.91667,0.0789 0.33229,0.33229 -0.25834,0.56864 -1.3125,0.52522 -1.16495,-0.048 -1.4019,-0.28494 -0.60417,-0.60416 z m 5,-1 c 0.72187,-0.28887 1.58438,-0.25335 1.91667,0.0789 0.33229,0.33229 -0.25834,0.56864 -1.3125,0.52522 -1.16495,-0.048 -1.4019,-0.28494 -0.60417,-0.60416 z m -97,-1 c 0.72187,-0.28887 1.58438,-0.25335 1.91667,0.0789 0.33229,0.33229 -0.25834,0.56864 -1.3125,0.52522 -1.16495,-0.048 -1.4019,-0.28494 -0.60417,-0.60416 z m 103,0 c 0.72187,-0.28887 1.58438,-0.25335 1.91667,0.0789 0.33229,0.33229 -0.25834,0.56864 -1.3125,0.52522 -1.16495,-0.048 -1.4019,-0.28494 -0.60417,-0.60416 z m -107,-1 c 0.72187,-0.28887 1.58438,-0.25335 1.91667,0.0789 0.33229,0.33229 -0.25834,0.56864 -1.3125,0.52522 -1.16495,-0.048 -1.4019,-0.28494 -0.60417,-0.60416 z m 111,0 c 0.72187,-0.28887 1.58438,-0.25335 1.91667,0.0789 0.33229,0.33229 -0.25834,0.56864 -1.3125,0.52522 -1.16495,-0.048 -1.4019,-0.28494 -0.60417,-0.60416 z m 11.88983,-3.98356 c 0.28141,-0.73333 0.64036,-1.33333 0.79767,-1.33333 0.15731,0 0.51626,0.6 0.79767,1.33333 0.28141,0.73334 -0.0775,1.33334 -0.79767,1.33334 -0.72013,0 -1.07908,-0.6 -0.79767,-1.33334 z m -0.62338,-6.91666 c 0.048,-1.16495 0.28494,-1.4019 0.60416,-0.60417 0.28887,0.72187 0.25335,1.58438 -0.0789,1.91667 -0.33229,0.33229 -0.56864,-0.25834 -0.52522,-1.3125 z m -6.56767,-3.03979 c -0.9453,-1.44272 -1.22448,-2.31766 -0.62038,-1.94431 1.15439,0.71346 3.48267,4.56743 2.75929,4.56743 -0.23109,0 -1.1936,-1.18041 -2.13891,-2.62312 z m 43.48872,-0.37688 c 0.825,-0.53316 1.95,-0.96937 2.5,-0.96937 0.55,0 0.325,0.43621 -0.5,0.96937 -0.825,0.53316 -1.95,0.96937 -2.5,0.96937 -0.55,0 -0.325,-0.43621 0.5,-0.96937 z m -37.92105,-2.58333 c 0.048,-1.16495 0.28494,-1.4019 0.60416,-0.60417 0.28887,0.72187 0.25335,1.58438 -0.0789,1.91667 -0.33229,0.33229 -0.56864,-0.25834 -0.52522,-1.3125 z m -1,-6 c 0.048,-1.16495 0.28494,-1.4019 0.60416,-0.60417 0.28887,0.72187 0.25335,1.58438 -0.0789,1.91667 -0.33229,0.33229 -0.56864,-0.25834 -0.52522,-1.3125 z m -12.20651,-2.16667 c -1.24387,-1.58606 -1.2085,-1.62143 0.37756,-0.37756 0.9625,0.75485 1.75,1.54235 1.75,1.75 0,0.82304 -0.82119,0.29331 -2.12756,-1.37244 z m -184.43131,-2.80517 c -1.86402,-1.49339 -1.85176,-1.51185 0.30887,-0.46481 1.2375,0.59969 2.25,1.29951 2.25,1.55516 0,0.76522 -0.51861,0.54424 -2.55887,-1.09035 z m 263.75382,-1.94483 c 0.0204,-1.65 0.2445,-2.20394 0.49804,-1.23097 0.25354,0.97297 0.23687,2.32297 -0.0371,3 -0.27393,0.67703 -0.48137,-0.11903 -0.46099,-1.76903 z m -68,-1 c 0.0204,-1.65 0.2445,-2.20394 0.49804,-1.23097 0.25354,0.97297 0.23687,2.32297 -0.0371,3 -0.27393,0.67703 -0.48137,-0.11903 -0.46099,-1.76903 z m 62.884,-0.0833 c 0.048,-1.16495 0.28494,-1.4019 0.60416,-0.60417 0.28887,0.72187 0.25335,1.58438 -0.0789,1.91667 -0.33229,0.33229 -0.56864,-0.25834 -0.52522,-1.3125 z m -82.20651,-5.1667 c -1.24387,-1.58606 -1.2085,-1.62143 0.37756,-0.37756 0.9625,0.75485 1.75,1.54235 1.75,1.75 0,0.82304 -0.82119,0.29331 -2.12756,-1.37244 z m 80.20651,-3.83333 c 0.048,-1.16495 0.28494,-1.4019 0.60416,-0.60417 0.28887,0.72187 0.25335,1.58438 -0.0789,1.91667 -0.33229,0.33229 -0.56864,-0.25834 -0.52522,-1.3125 z m -61.67901,-14.91667 c 0.001,-8.25 0.15629,-11.49193 0.34419,-7.20429 0.1879,4.28763 0.18676,11.03763 -0.003,15 -0.1893,3.96236 -0.34304,0.45429 -0.34164,-7.79571 z m -24.5275,10.75 c -1.24387,-1.58606 -1.2085,-1.62143 0.37756,-0.37756 0.9625,0.75485 1.75,1.54235 1.75,1.75 0,0.82304 -0.82119,0.29331 -2.12756,-1.37244 z m 92.39992,-2.25 c 0,-2.475 0.19502,-3.4875 0.43337,-2.25 0.23836,1.2375 0.23836,3.2625 0,4.5 -0.23835,1.2375 -0.43337,0.225 -0.43337,-2.25 z m -298.39992,-4.75 c -1.24387,-1.58606 -1.2085,-1.62143 0.37756,-0.37756 0.9625,0.75485 1.75,1.54235 1.75,1.75 0,0.82304 -0.82119,0.29331 -2.12756,-1.37244 z m -5,-4 c -1.24387,-1.58606 -1.2085,-1.62143 0.37756,-0.37756 0.9625,0.75485 1.75,1.54235 1.75,1.75 0,0.82304 -0.82119,0.29331 -2.12756,-1.37244 z m -4.46745,-3.5 -1.90499,-2.25 2.25,1.90499 c 2.11444,1.79022 2.70524,2.59501 1.90499,2.59501 -0.18976,0 -1.20226,-1.0125 -2.25,-2.25 z m 203.46745,-1.5 c -1.24387,-1.58606 -1.2085,-1.62143 0.37756,-0.37756 0.9625,0.75485 1.75,1.54235 1.75,1.75 0,0.82304 -0.82119,0.29331 -2.12756,-1.37244 z m -211.92627,-6 -3.44617,-3.75 3.75,3.44617 c 2.0625,1.89539 3.75,3.58289 3.75,3.75 0,0.76362 -0.84622,0.0442 -4.05383,-3.44617 z m 208.92627,2 c -1.24387,-1.58606 -1.2085,-1.62143 0.37756,-0.37756 0.9625,0.75485 1.75,1.54235 1.75,1.75 0,0.82304 -0.82119,0.29331 -2.12756,-1.37244 z m 162.62756,-2.25 c 2.14824,-2.2 4.1309,-4 4.4059,-4 0.275,0 -1.25766,1.8 -3.4059,4 -2.14824,2.2 -4.1309,4 -4.4059,4 -0.275,0 1.25766,-1.8 3.4059,-4 z m -56.268,0 c 0,-1.925 0.2058,-2.7125 0.45733,-1.75 0.25152,0.9625 0.25152,2.5375 0,3.5 -0.25153,0.9625 -0.45733,0.175 -0.45733,-1.75 z m -14.06956,-0.54283 c -1.67549,-3.67729 -1.35583,-4.46179 0.45586,-1.11876 0.84602,1.56112 1.3511,3.02552 1.1224,3.25422 -0.2287,0.2287 -0.93892,-0.73225 -1.57826,-2.13546 z m -95.29,-1.20717 c -1.24387,-1.58606 -1.2085,-1.62143 0.37756,-0.37756 0.9625,0.75485 1.75,1.54235 1.75,1.75 0,0.82304 -0.82119,0.29331 -2.12756,-1.37244 z m -3,-4 c -1.24387,-1.58606 -1.2085,-1.62143 0.37756,-0.37756 0.9625,0.75485 1.75,1.54235 1.75,1.75 0,0.82304 -0.82119,0.29331 -2.12756,-1.37244 z m -214.87244,-4.75 c -2.42903,-2.475 -4.19142,-4.5 -3.91642,-4.5 0.275,0 2.48739,2.025 4.91642,4.5 2.42903,2.475 4.19142,4.5 3.91642,4.5 -0.275,0 -2.48739,-2.025 -4.91642,-4.5 z m 397,-3 c 3.54322,-3.575 6.66722,-6.5 6.94222,-6.5 0.275,0 -2.399,2.925 -5.94222,6.5 -3.54322,3.575 -6.66722,6.5 -6.94222,6.5 -0.275,0 2.399,-2.925 5.94222,-6.5 z m -135.84211,2.5 c 0,-1.375 0.22698,-1.9375 0.50439,-1.25 0.27741,0.6875 0.27741,1.8125 0,2.5 -0.27741,0.6875 -0.50439,0.125 -0.50439,-1.25 z m 65,-1 c 0,-1.375 0.22698,-1.9375 0.50439,-1.25 0.27741,0.6875 0.27741,1.8125 0,2.5 -0.27741,0.6875 -0.50439,0.125 -0.50439,-1.25 z m -117.28545,-1.75 c -1.24387,-1.58606 -1.2085,-1.62143 0.37756,-0.37756 0.9625,0.75485 1.75,1.54235 1.75,1.75 0,0.82304 -0.82119,0.29331 -2.12756,-1.37244 z m 53.28545,-5.25 c 0,-1.375 0.22698,-1.9375 0.50439,-1.25 0.27741,0.6875 0.27741,1.8125 0,2.5 -0.27741,0.6875 -0.50439,0.125 -0.50439,-1.25 z m 41.84211,0 c -0.5887,-1.1 -0.84537,-2 -0.57037,-2 0.275,0 0.98167,0.9 1.57037,2 0.5887,1.1 0.84537,2 0.57037,2 -0.275,0 -0.98167,-0.9 -1.57037,-2 z m -101.12756,-2.75 c -1.24387,-1.58606 -1.2085,-1.62143 0.37756,-0.37756 0.9625,0.75485 1.75,1.54235 1.75,1.75 0,0.82304 -0.82119,0.29331 -2.12756,-1.37244 z m 122.28545,-0.25 c 0,-1.375 0.22698,-1.9375 0.50439,-1.25 0.27741,0.6875 0.27741,1.8125 0,2.5 -0.27741,0.6875 -0.50439,0.125 -0.50439,-1.25 z m -336.7529,-1.25 -1.90499,-2.25 2.25,1.90499 c 2.11444,1.79022 2.70524,2.59501 1.90499,2.59501 -0.18976,0 -1.20226,-1.0125 -2.25,-2.25 z m 211.46745,-2.5 c -1.24387,-1.58606 -1.2085,-1.62143 0.37756,-0.37756 0.9625,0.75485 1.75,1.54235 1.75,1.75 0,0.82304 -0.82119,0.29331 -2.12756,-1.37244 z m 100,0 c -1.24387,-1.58606 -1.2085,-1.62143 0.37756,-0.37756 0.9625,0.75485 1.75,1.54235 1.75,1.75 0,0.82304 -0.82119,0.29331 -2.12756,-1.37244 z m 107.12756,1.37244 c 0,-0.20765 0.7875,-0.99515 1.75,-1.75 1.58606,-1.24387 1.62143,-1.2085 0.37756,0.37756 -1.30637,1.66575 -2.12756,2.19548 -2.12756,1.37244 z m -424.12756,-5.37244 c -1.24387,-1.58606 -1.2085,-1.62143 0.37756,-0.37756 0.9625,0.75485 1.75,1.54235 1.75,1.75 0,0.82304 -0.82119,0.29331 -2.12756,-1.37244 z m 213.53255,-0.5 -1.90499,-2.25 2.25,1.90499 c 2.11444,1.79022 2.70524,2.59501 1.90499,2.59501 -0.18976,0 -1.20226,-1.0125 -2.25,-2.25 z m 100.46745,0.5 c -1.24387,-1.58606 -1.2085,-1.62143 0.37756,-0.37756 1.66575,1.30637 2.19548,2.12756 1.37244,2.12756 -0.20765,0 -0.99515,-0.7875 -1.75,-1.75 z m 27.20651,-0.83333 c 0.048,-1.16495 0.28494,-1.4019 0.60416,-0.60417 0.28887,0.72187 0.25335,1.58438 -0.0789,1.91667 -0.33229,0.33229 -0.56864,-0.25834 -0.52522,-1.3125 z m -345.67396,-4.66667 -1.90499,-2.25 2.25,1.90499 c 1.2375,1.04774 2.25,2.06024 2.25,2.25 0,0.80025 -0.80479,0.20945 -2.59501,-1.90499 z m 214.46745,0.5 c -1.24387,-1.58606 -1.2085,-1.62143 0.37756,-0.37756 0.9625,0.75485 1.75,1.54235 1.75,1.75 0,0.82304 -0.82119,0.29331 -2.12756,-1.37244 z m 101.37974,-4.75 c 0.0111,-2.2 0.21589,-2.98225 0.45508,-1.73834 0.23919,1.24391 0.23011,3.04391 -0.0202,4 -0.25029,0.95609 -0.446,-0.0617 -0.4349,-2.26166 z m -104.37974,0.75 c -1.24387,-1.58606 -1.2085,-1.62143 0.37756,-0.37756 1.66575,1.30637 2.19548,2.12756 1.37244,2.12756 -0.20765,0 -0.99515,-0.7875 -1.75,-1.75 z m 133.20651,0.16667 c 0.048,-1.16495 0.28494,-1.4019 0.60416,-0.60417 0.28887,0.72187 0.25335,1.58438 -0.0789,1.91667 -0.33229,0.33229 -0.56864,-0.25834 -0.52522,-1.3125 z m -348.20651,-1.16667 c -1.24387,-1.58606 -1.2085,-1.62143 0.37756,-0.37756 0.9625,0.75485 1.75,1.54235 1.75,1.75 0,0.82304 -0.82119,0.29331 -2.12756,-1.37244 z m 211.53255,-3.5 -1.90499,-2.25 2.25,1.90499 c 2.11444,1.79022 2.70524,2.59501 1.90499,2.59501 -0.18976,0 -1.20226,-1.0125 -2.25,-2.25 z m -215.53255,-1.5 c -1.24387,-1.58606 -1.2085,-1.62143 0.37756,-0.37756 1.66575,1.30637 2.19548,2.12756 1.37244,2.12756 -0.20765,0 -0.99515,-0.7875 -1.75,-1.75 z m 351.20651,-1.83333 c 0.048,-1.16495 0.28494,-1.4019 0.60416,-0.60417 0.28887,0.72187 0.25335,1.58438 -0.0789,1.91667 -0.33229,0.33229 -0.56864,-0.25834 -0.52522,-1.3125 z m -139.20651,-1.16667 c -1.24387,-1.58606 -1.2085,-1.62143 0.37756,-0.37756 0.9625,0.75485 1.75,1.54235 1.75,1.75 0,0.82304 -0.82119,0.29331 -2.12756,-1.37244 z m -3,-4 c -1.24387,-1.58606 -1.2085,-1.62143 0.37756,-0.37756 0.9625,0.75485 1.75,1.54235 1.75,1.75 0,0.82304 -0.82119,0.29331 -2.12756,-1.37244 z m -208.87244,0.37244 c 0,-0.20765 0.7875,-0.99515 1.75,-1.75 1.58606,-1.24387 1.62143,-1.2085 0.37756,0.37756 -1.30637,1.66575 -2.12756,2.19548 -2.12756,1.37244 z m 350.07895,-3.20577 c 0.048,-1.16495 0.28494,-1.4019 0.60416,-0.60417 0.28887,0.72187 0.25335,1.58438 -0.0789,1.91667 -0.33229,0.33229 -0.56864,-0.25834 -0.52522,-1.3125 z m -345.07895,-0.79423 c 0,-0.20765 0.7875,-0.99515 1.75,-1.75 1.58606,-1.24387 1.62143,-1.2085 0.37756,0.37756 -1.30637,1.66575 -2.12756,2.19548 -2.12756,1.37244 z m 197.87244,-4.37244 c -1.24387,-1.58606 -1.2085,-1.62143 0.37756,-0.37756 0.9625,0.75485 1.75,1.54235 1.75,1.75 0,0.82304 -0.82119,0.29331 -2.12756,-1.37244 z m 146.20651,-2.83333 c 0.048,-1.16495 0.28494,-1.4019 0.60416,-0.60417 0.28887,0.72187 0.25335,1.58438 -0.0789,1.91667 -0.33229,0.33229 -0.56864,-0.25834 -0.52522,-1.3125 z m -333.57895,-1.41667 c 0.99549,-1.1 2.03498,-2 2.30998,-2 0.275,0 -0.31449,0.9 -1.30998,2 -0.99549,1.1 -2.03498,2 -2.30998,2 -0.275,0 0.31449,-0.9 1.30998,-2 z m 182.90499,-1.25 -1.90499,-2.25 2.25,1.90499 c 2.11444,1.79022 2.70524,2.59501 1.90499,2.59501 -0.18976,0 -1.20226,-1.0125 -2.25,-2.25 z m -177.90499,-2.75 c 0.99549,-1.1 2.03498,-2 2.30998,-2 0.275,0 -0.31449,0.9 -1.30998,2 -0.99549,1.1 -2.03498,2 -2.30998,2 -0.275,0 0.31449,-0.9 1.30998,-2 z m 327.57895,-0.58333 c 0.048,-1.16495 0.28494,-1.4019 0.60416,-0.60417 0.28887,0.72187 0.25335,1.58438 -0.0789,1.91667 -0.33229,0.33229 -0.56864,-0.25834 -0.52522,-1.3125 z m -153.20651,-1.16667 c -1.24387,-1.58606 -1.2085,-1.62143 0.37756,-0.37756 0.9625,0.75485 1.75,1.54235 1.75,1.75 0,0.82304 -0.82119,0.29331 -2.12756,-1.37244 z m -169.37244,-2.25 c 0.99549,-1.1 2.03498,-2 2.30998,-2 0.275,0 -0.31449,0.9 -1.30998,2 -0.99549,1.1 -2.03498,2 -2.30998,2 -0.275,0 0.31449,-0.9 1.30998,-2 z m 165.90499,-2.25 -1.90499,-2.25 2.25,1.90499 c 2.11444,1.79022 2.70524,2.59501 1.90499,2.59501 -0.18976,0 -1.20226,-1.0125 -2.25,-2.25 z m 155.67396,-0.33333 c 0.048,-1.16495 0.28494,-1.4019 0.60416,-0.60417 0.28887,0.72187 0.25335,1.58438 -0.0789,1.91667 -0.33229,0.33229 -0.56864,-0.25834 -0.52522,-1.3125 z m -318.07895,0.20577 c 0,-0.20765 0.7875,-0.99515 1.75,-1.75 1.58606,-1.24387 1.62143,-1.2085 0.37756,0.37756 -1.30637,1.66575 -2.12756,2.19548 -2.12756,1.37244 z m 158.87244,-4.37244 c -1.24387,-1.58606 -1.2085,-1.62143 0.37756,-0.37756 1.66575,1.30637 2.19548,2.12756 1.37244,2.12756 -0.20765,0 -0.99515,-0.7875 -1.75,-1.75 z m -153.87244,0.37244 c 0,-0.20765 0.7875,-0.99515 1.75,-1.75 1.58606,-1.24387 1.62143,-1.2085 0.37756,0.37756 -1.30637,1.66575 -2.12756,2.19548 -2.12756,1.37244 z m 5,-4 c 0,-0.20765 0.7875,-0.99515 1.75,-1.75 1.58606,-1.24387 1.62143,-1.2085 0.37756,0.37756 -1.30637,1.66575 -2.12756,2.19548 -2.12756,1.37244 z m 144.87244,-1.37244 c -1.24387,-1.58606 -1.2085,-1.62143 0.37756,-0.37756 0.9625,0.75485 1.75,1.54235 1.75,1.75 0,0.82304 -0.82119,0.29331 -2.12756,-1.37244 z m 36.53255,-0.5 -1.90499,-2.25 2.25,1.90499 c 2.11444,1.79022 2.70524,2.59501 1.90499,2.59501 -0.18976,0 -1.20226,-1.0125 -2.25,-2.25 z m -39.53255,-3.5 c -1.24387,-1.58606 -1.2085,-1.62143 0.37756,-0.37756 1.66575,1.30637 2.19548,2.12756 1.37244,2.12756 -0.20765,0 -0.99515,-0.7875 -1.75,-1.75 z m -131.87244,-2.62756 c 0,-0.20765 0.7875,-0.99515 1.75,-1.75 1.58606,-1.24387 1.62143,-1.2085 0.37756,0.37756 -1.30637,1.66575 -2.12756,2.19548 -2.12756,1.37244 z m 127.40499,-2.87244 -1.90499,-2.25 2.25,1.90499 c 2.11444,1.79022 2.70524,2.59501 1.90499,2.59501 -0.18976,0 -1.20226,-1.0125 -2.25,-2.25 z m -122.40499,-1.12756 c 0,-0.20765 0.7875,-0.99515 1.75,-1.75 1.58606,-1.24387 1.62143,-1.2085 0.37756,0.37756 -1.30637,1.66575 -2.12756,2.19548 -2.12756,1.37244 z m 151.45295,-3.87244 -3.95295,-4.25 4.25,3.95295 c 2.3375,2.17412 4.25,4.08662 4.25,4.25 0,0.75658 -0.87085,-4.9e-4 -4.54705,-3.95295 z m -32.58051,0.5 c -1.24387,-1.58606 -1.2085,-1.62143 0.37756,-0.37756 1.66575,1.30637 2.19548,2.12756 1.37244,2.12756 -0.20765,0 -0.99515,-0.7875 -1.75,-1.75 z m 168.14287,0 c -0.008,-1.2375 0.43469,-2.25 0.98469,-2.25 1.25292,0 1.25292,1.06124 0,3 -0.78387,1.21296 -0.9723,1.06944 -0.98469,-0.75 z m -281.01531,-1.62756 c 0,-0.20765 0.7875,-0.99515 1.75,-1.75 1.58606,-1.24387 1.62143,-1.2085 0.37756,0.37756 -1.30637,1.66575 -2.12756,2.19548 -2.12756,1.37244 z m 6.5,-5.62244 c 0.99549,-1.1 2.03498,-2 2.30998,-2 0.275,0 -0.31449,0.9 -1.30998,2 -0.99549,1.1 -2.03498,2 -2.30998,2 -0.275,0 0.31449,-0.9 1.30998,-2 z m 99.37244,-1.75 c -1.24387,-1.58606 -1.2085,-1.62143 0.37756,-0.37756 0.9625,0.75485 1.75,1.54235 1.75,1.75 0,0.82304 -0.82119,0.29331 -2.12756,-1.37244 z m 28.05187,-4 -2.42431,-2.75 2.75,2.42431 c 2.57029,2.26589 3.20859,3.07569 2.42431,3.07569 -0.17912,0 -1.41662,-1.2375 -2.75,-2.75 z m 5.48068,-2.5 -1.90499,-2.25 2.25,1.90499 c 2.11444,1.79022 2.70524,2.59501 1.90499,2.59501 -0.18976,0 -1.20226,-1.0125 -2.25,-2.25 z m -126.40499,0.87244 c 0,-0.20765 0.7875,-0.99515 1.75,-1.75 1.58606,-1.24387 1.62143,-1.2085 0.37756,0.37756 -1.30637,1.66575 -2.12756,2.19548 -2.12756,1.37244 z m 86.87244,-2.37244 c -1.24387,-1.58606 -1.2085,-1.62143 0.37756,-0.37756 1.66575,1.30637 2.19548,2.12756 1.37244,2.12756 -0.20765,0 -0.99515,-0.7875 -1.75,-1.75 z m -4,-5 c -1.24387,-1.58606 -1.2085,-1.62143 0.37756,-0.37756 1.66575,1.30637 2.19548,2.12756 1.37244,2.12756 -0.20765,0 -0.99515,-0.7875 -1.75,-1.75 z m 36,0 c -1.24387,-1.58606 -1.2085,-1.62143 0.37756,-0.37756 1.66575,1.30637 2.19548,2.12756 1.37244,2.12756 -0.20765,0 -0.99515,-0.7875 -1.75,-1.75 z m -6.13911,-3.37409 c 0.67834,-0.68342 1.48524,-0.99067 1.79313,-0.68278 0.30789,0.30789 -0.24711,0.86705 -1.23333,1.24258 -1.4252,0.54268 -1.54006,0.42782 -0.5598,-0.5598 z m -33.86089,-1.62591 c -1.24387,-1.58606 -1.2085,-1.62143 0.37756,-0.37756 0.9625,0.75485 1.75,1.54235 1.75,1.75 0,0.82304 -0.82119,0.29331 -2.12756,-1.37244 z m -4,-5 c -1.24387,-1.58606 -1.2085,-1.62143 0.37756,-0.37756 1.66575,1.30637 2.19548,2.12756 1.37244,2.12756 -0.20765,0 -0.99515,-0.7875 -1.75,-1.75 z m 119.2876,-3.92668 c -0.1169,-3.05072 -0.63181,-4.29996 -1.91004,-4.63399 -1.64009,-0.4286 -1.63812,-0.46461 0.0314,-0.57333 2.22183,-0.14468 2.97878,1.72173 2.44912,6.0388 -0.37671,3.07043 -0.42357,3.00214 -0.57046,-0.83148 z m -122.2876,-0.0733 c -1.24387,-1.58606 -1.2085,-1.62143 0.37756,-0.37756 0.9625,0.75485 1.75,1.54235 1.75,1.75 0,0.82304 -0.82119,0.29331 -2.12756,-1.37244 z m -4,-5 c -1.24387,-1.58606 -1.2085,-1.62143 0.37756,-0.37756 0.9625,0.75485 1.75,1.54235 1.75,1.75 0,0.82304 -0.82119,0.29331 -2.12756,-1.37244 z m 141.47264,0.20687 c -0.32569,-0.84872 -0.31156,-1.82372 0.0314,-2.16666 0.34295,-0.34295 0.62354,0.1059 0.62354,0.99743 0,1.29999 1.33665,1.69025 6.75,1.97081 l 6.75,0.34983 -6.78138,0.19586 c -5.31556,0.15352 -6.90939,-0.13769 -7.37354,-1.34727 z m 16.29114,0.91878 c 0.81755,-0.33564 0.64368,-2.48708 -0.61995,-7.67106 -0.9659,-3.96252 -2.7331,-11.35137 -3.92712,-16.41965 -1.19402,-5.06828 -3.0762,-11.39335 -4.18263,-14.0557 l -2.01168,-4.84064 -8.69742,-1.7991 c -16.0473,-3.31944 -35.65476,-9.05495 -68.19742,-19.9489 -31.34788,-10.49398 -36.03294,-12.17502 -48.29214,-17.32766 l -10.79215,-4.53602 2.54308,-3.13846 c 6.782,-8.36982 12.02578,-20.40158 13.18307,-30.24836 0.52755,-4.48864 0.95766,-5.44418 2.25501,-5.00985 14.95389,5.00627 19.15232,5.83069 32.36044,6.35446 l 13.75731,0.54555 4.1756,7.60987 c 4.7944,8.73759 10.49811,16.90569 15.69868,22.48158 5.83395,6.25499 21.03253,18.00157 33.25298,25.70035 14.29986,9.00881 20.69384,14.43796 26.36727,22.38855 5.92786,8.30716 9.04481,15.32693 12.02893,27.09068 3.53514,13.93592 3.66886,13.46396 -3.78808,13.36976 -3.4375,-0.0434 -5.7387,-0.28885 -5.11378,-0.5454 z m -161.23123,-5.62565 -1.90499,-2.25 2.25,1.90499 c 2.11444,1.79022 2.70524,2.59501 1.90499,2.59501 -0.18976,0 -1.20226,-1.0125 -2.25,-2.25 z m 114.40751,1.56689 c 0.72187,-0.28887 1.58438,-0.25335 1.91667,0.0789 0.33229,0.33229 -0.25834,0.56864 -1.3125,0.52522 -1.16495,-0.048 -1.4019,-0.28494 -0.60417,-0.60416 z m 29.34539,-3.31689 c 0,-1.375 0.22698,-1.9375 0.50439,-1.25 0.27741,0.6875 0.27741,1.8125 0,2.5 -0.27741,0.6875 -0.50439,0.125 -0.50439,-1.25 z m -185.15789,-3.37756 c 0,-0.20765 0.7875,-0.99515 1.75,-1.75 1.58606,-1.24387 1.62143,-1.2085 0.37756,0.37756 -1.30637,1.66575 -2.12756,2.19548 -2.12756,1.37244 z m 184.15789,-1.62244 c 0,-1.375 0.22698,-1.9375 0.50439,-1.25 0.27741,0.6875 0.27741,1.8125 0,2.5 -0.27741,0.6875 -0.50439,0.125 -0.50439,-1.25 z m -59.15789,-1 c -0.825,-0.53316 -1.05,-0.96937 -0.5,-0.96937 0.55,0 1.675,0.43621 2.5,0.96937 0.825,0.53316 1.05,0.96937 0.5,0.96937 -0.55,0 -1.675,-0.43621 -2.5,-0.96937 z m -91.12756,-1.75 c -1.24387,-1.58606 -1.2085,-1.62143 0.37756,-0.37756 0.9625,0.75485 1.75,1.54235 1.75,1.75 0,0.82304 -0.82119,0.29331 -2.12756,-1.37244 z m 80.12756,-2.25 c -0.825,-0.53316 -1.05,-0.96937 -0.5,-0.96937 0.55,0 1.675,0.43621 2.5,0.96937 0.825,0.53316 1.05,0.96937 0.5,0.96937 -0.55,0 -1.675,-0.43621 -2.5,-0.96937 z m -83.59501,-2.25 -1.90499,-2.25 2.25,1.90499 c 2.11444,1.79022 2.70524,2.59501 1.90499,2.59501 -0.18976,0 -1.20226,-1.0125 -2.25,-2.25 z m 78.59501,0.25 c -0.825,-0.53316 -1.05,-0.96937 -0.5,-0.96937 0.55,0 1.675,0.43621 2.5,0.96937 0.825,0.53316 1.05,0.96937 0.5,0.96937 -0.55,0 -1.675,-0.43621 -2.5,-0.96937 z m -5,-2 c -0.825,-0.53316 -1.05,-0.96937 -0.5,-0.96937 0.55,0 1.675,0.43621 2.5,0.96937 0.825,0.53316 1.05,0.96937 0.5,0.96937 -0.55,0 -1.675,-0.43621 -2.5,-0.96937 z m 78.07895,-0.58333 c 0.048,-1.16495 0.28494,-1.4019 0.60416,-0.60417 0.28887,0.72187 0.25335,1.58438 -0.0789,1.91667 -0.33229,0.33229 -0.56864,-0.25834 -0.52522,-1.3125 z m -155.67396,-2.66667 -1.90499,-2.25 2.25,1.90499 c 2.11444,1.79022 2.70524,2.59501 1.90499,2.59501 -0.18976,0 -1.20226,-1.0125 -2.25,-2.25 z m -17.40499,0.87244 c 0,-0.20765 0.7875,-0.99515 1.75,-1.75 1.58606,-1.24387 1.62143,-1.2085 0.37756,0.37756 -1.30637,1.66575 -2.12756,2.19548 -2.12756,1.37244 z m 87,-1.12244 c -1.375,-0.78602 -2.05,-1.42913 -1.5,-1.42913 0.55,0 2.125,0.64311 3.5,1.42913 1.375,0.78602 2.05,1.42913 1.5,1.42913 -0.55,0 -2.125,-0.64311 -3.5,-1.42913 z m -84,-2.87756 c 0,-0.20765 0.7875,-0.99515 1.75,-1.75 1.58606,-1.24387 1.62143,-1.2085 0.37756,0.37756 -1.30637,1.66575 -2.12756,2.19548 -2.12756,1.37244 z m 76,-0.62244 c -0.825,-0.53316 -1.05,-0.96937 -0.5,-0.96937 0.55,0 1.675,0.43621 2.5,0.96937 0.825,0.53316 1.05,0.96937 0.5,0.96937 -0.55,0 -1.675,-0.43621 -2.5,-0.96937 z m -66.59501,-2.25 -1.90499,-2.25 2.25,1.90499 c 2.11444,1.79022 2.70524,2.59501 1.90499,2.59501 -0.18976,0 -1.20226,-1.0125 -2.25,-2.25 z m 59.59501,-0.75 c -0.825,-0.53316 -1.05,-0.96937 -0.5,-0.96937 0.55,0 1.675,0.43621 2.5,0.96937 0.825,0.53316 1.05,0.96937 0.5,0.96937 -0.55,0 -1.675,-0.43621 -2.5,-0.96937 z m 82.8125,0.31689 c 0.72187,-0.28887 1.58438,-0.25335 1.91667,0.0789 0.33229,0.33229 -0.25834,0.56864 -1.3125,0.52522 -1.16495,-0.048 -1.4019,-0.28494 -0.60417,-0.60416 z m -4,-1 c 0.72187,-0.28887 1.58438,-0.25335 1.91667,0.0789 0.33229,0.33229 -0.25834,0.56864 -1.3125,0.52522 -1.16495,-0.048 -1.4019,-0.28494 -0.60417,-0.60416 z m -87.8125,-3.31689 c -0.825,-0.53316 -1.05,-0.96937 -0.5,-0.96937 0.55,0 1.675,0.43621 2.5,0.96937 0.825,0.53316 1.05,0.96937 0.5,0.96937 -0.55,0 -1.675,-0.43621 -2.5,-0.96937 z m -28,-13.5 c -2.475,-1.32529 -4.14457,-2.42996 -3.71016,-2.45481 1.06195,-0.0608 8.71016,3.86876 8.71016,4.47513 0,0.66249 0.0415,0.67926 -5,-2.02032 z m -18,-8.5 c -0.90129,-0.58246 -1.02463,-0.97549 -0.30902,-0.98469 0.65504,-0.008 1.4691,0.43469 1.80902,0.98469 0.7673,1.24153 0.42112,1.24153 -1.5,0 z m 254.8125,-9.68311 c 0.72187,-0.28887 1.58438,-0.25335 1.91667,0.0789 0.33229,0.33229 -0.25834,0.56864 -1.3125,0.52522 -1.16495,-0.048 -1.4019,-0.28494 -0.60417,-0.60416 z m 7,-1 c 0.72187,-0.28887 1.58438,-0.25335 1.91667,0.0789 0.33229,0.33229 -0.25834,0.56864 -1.3125,0.52522 -1.16495,-0.048 -1.4019,-0.28494 -0.60417,-0.60416 z m -36.5625,-13.0631 c 5.9125,-0.1768 15.5875,-0.1768 21.5,0 5.9125,0.17679 1.075,0.32145 -10.75,0.32145 -11.825,0 -16.6625,-0.14466 -10.75,-0.32145 z m -22,-0.94312 c 0.9625,-0.25152 2.5375,-0.25152 3.5,0 0.9625,0.25153 0.175,0.45733 -1.75,0.45733 -1.925,0 -2.7125,-0.2058 -1.75,-0.45733 z m 59.5625,0.006 c 0.72187,-0.28887 1.58438,-0.25335 1.91667,0.0789 0.33229,0.33229 -0.25834,0.56864 -1.3125,0.52522 -1.16495,-0.048 -1.4019,-0.28494 -0.60417,-0.60416 z m -236.3125,-2.31667 c 0.99549,-1.1 2.03498,-2 2.30998,-2 0.275,0 -0.31449,0.9 -1.30998,2 -0.99549,1.1 -2.03498,2 -2.30998,2 -0.275,0 0.31449,-0.9 1.30998,-2 z m 166.76903,1.30701 c 0.97297,-0.25354 2.32297,-0.23687 3,0.0371 0.67703,0.27393 -0.11903,0.48137 -1.76903,0.46099 -1.65,-0.0204 -2.20394,-0.2445 -1.23097,-0.49804 z m -7.45653,-0.99012 c 0.72187,-0.28887 1.58438,-0.25335 1.91667,0.0789 0.33229,0.33229 -0.25834,0.56864 -1.3125,0.52522 -1.16495,-0.048 -1.4019,-0.28494 -0.60417,-0.60416 z m -7,-1 c 0.72187,-0.28887 1.58438,-0.25335 1.91667,0.0789 0.33229,0.33229 -0.25834,0.56864 -1.3125,0.52522 -1.16495,-0.048 -1.4019,-0.28494 -0.60417,-0.60416 z m -5,-1 c 0.72187,-0.28887 1.58438,-0.25335 1.91667,0.0789 0.33229,0.33229 -0.25834,0.56864 -1.3125,0.52522 -1.16495,-0.048 -1.4019,-0.28494 -0.60417,-0.60416 z m 119.34539,-12.31689 c 0,-1.375 0.22698,-1.9375 0.50439,-1.25 0.27741,0.6875 0.27741,1.8125 0,2.5 -0.27741,0.6875 -0.50439,0.125 -0.50439,-1.25 z m -178.15789,-13.5 c -2.42903,-2.475 -4.19142,-4.5 -3.91642,-4.5 0.275,0 2.48739,2.025 4.91642,4.5 2.42903,2.475 4.19142,4.5 3.91642,4.5 -0.275,0 -2.48739,-2.025 -4.91642,-4.5 z m -142.12756,-4.25 c -1.24387,-1.58606 -1.2085,-1.62143 0.37756,-0.37756 1.66575,1.30637 2.19548,2.12756 1.37244,2.12756 -0.20765,0 -0.99515,-0.7875 -1.75,-1.75 z M 644.48288,565.7154 c 0.048,-1.16495 0.28494,-1.4019 0.60416,-0.60417 0.28887,0.72187 0.25335,1.58438 -0.0789,1.91667 -0.33229,0.33229 -0.56864,-0.25834 -0.52522,-1.3125 z m -311.20651,-4.16667 c -1.24387,-1.58606 -1.2085,-1.62143 0.37756,-0.37756 0.9625,0.75485 1.75,1.54235 1.75,1.75 0,0.82304 -0.82119,0.29331 -2.12756,-1.37244 z m 122.88922,-3.95726 c 1.24391,-0.23919 3.04391,-0.23011 4,0.0202 0.95609,0.25029 -0.0617,0.446 -2.26166,0.4349 -2.2,-0.0111 -2.98225,-0.21589 -1.73834,-0.45508 z m 10.98834,-0.95502 c 0.6875,-0.27741 1.8125,-0.27741 2.5,0 0.6875,0.27741 0.125,0.50439 -1.25,0.50439 -1.375,0 -1.9375,-0.22698 -1.25,-0.50439 z m 194.50218,-2.83772 c 0.0111,-2.2 0.21589,-2.98225 0.45508,-1.73834 0.23919,1.24391 0.23011,3.04391 -0.0202,4 -0.25029,0.95609 -0.446,-0.0617 -0.4349,-2.26166 z m -241.30601,-11.25 -3.44617,-3.75 3.75,3.44617 c 3.49042,3.20761 4.20979,4.05383 3.44617,4.05383 -0.16711,0 -1.85461,-1.6875 -3.75,-3.75 z m 215.86633,3.06689 c 0.72187,-0.28887 1.58438,-0.25335 1.91667,0.0789 0.33229,0.33229 -0.25834,0.56864 -1.3125,0.52522 -1.16495,-0.048 -1.4019,-0.28494 -0.60417,-0.60416 z m -4.8125,-4.69445 c 0,-0.20765 0.7875,-0.99515 1.75,-1.75 1.58606,-1.24387 1.62143,-1.2085 0.37756,0.37756 -1.30637,1.66575 -2.12756,2.19548 -2.12756,1.37244 z m 29.15789,-10.62244 c 0,-1.375 0.22698,-1.9375 0.50439,-1.25 0.27741,0.6875 0.27741,1.8125 0,2.5 -0.27741,0.6875 -0.50439,0.125 -0.50439,-1.25 z m -227.23358,-1.75 -2.42431,-2.75 2.75,2.42431 c 2.57029,2.26589 3.20859,3.07569 2.42431,3.07569 -0.17912,0 -1.41662,-1.2375 -2.75,-2.75 z m 20.94813,-6 c -1.24387,-1.58606 -1.2085,-1.62143 0.37756,-0.37756 1.66575,1.30637 2.19548,2.12756 1.37244,2.12756 -0.20765,0 -0.99515,-0.7875 -1.75,-1.75 z m -1.60008,-12.25 c 0,-2.475 0.19502,-3.4875 0.43337,-2.25 0.23836,1.2375 0.23836,3.2625 0,4.5 -0.23835,1.2375 -0.43337,0.225 -0.43337,-2.25 z m 200.80659,1.41667 c 0.048,-1.16495 0.28494,-1.4019 0.60416,-0.60417 0.28887,0.72187 0.25335,1.58438 -0.0789,1.91667 -0.33229,0.33229 -0.56864,-0.25834 -0.52522,-1.3125 z m 2.42105,-4.41667 c 0.99549,-1.1 2.03498,-2 2.30998,-2 0.275,0 -0.31449,0.9 -1.30998,2 -0.99549,1.1 -2.03498,2 -2.30998,2 -0.275,0 0.31449,-0.9 1.30998,-2 z M 424.48288,506.7154 c 0.048,-1.16495 0.28494,-1.4019 0.60416,-0.60417 0.28887,0.72187 0.25335,1.58438 -0.0789,1.91667 -0.33229,0.33229 -0.56864,-0.25834 -0.52522,-1.3125 z m 202.92105,-4.79423 c 0,-0.20765 0.7875,-0.99515 1.75,-1.75 1.58606,-1.24387 1.62143,-1.2085 0.37756,0.37756 -1.30637,1.66575 -2.12756,2.19548 -2.12756,1.37244 z m -200,-2 c 0,-0.20765 0.7875,-0.99515 1.75,-1.75 1.58606,-1.24387 1.62143,-1.2085 0.37756,0.37756 -1.30637,1.66575 -2.12756,2.19548 -2.12756,1.37244 z m 33.92431,-11.37244 -2.42431,-2.75 2.75,2.42431 c 2.57029,2.26589 3.20859,3.07569 2.42431,3.07569 -0.17912,0 -1.41662,-1.2375 -2.75,-2.75 z m -45.92431,-2.75 c 1.29175,-1.375 2.57363,-2.5 2.84863,-2.5 0.275,0 -0.55688,1.125 -1.84863,2.5 -1.29175,1.375 -2.57363,2.5 -2.84863,2.5 -0.275,0 0.55688,-1.125 1.84863,-2.5 z m 260.15789,0.5 c 0,-1.375 0.22698,-1.9375 0.50439,-1.25 0.27741,0.6875 0.27741,1.8125 0,2.5 -0.27741,0.6875 -0.50439,0.125 -0.50439,-1.25 z m -20.15789,-7.5 c -2.42903,-2.475 -4.19142,-4.5 -3.91642,-4.5 0.275,0 2.48739,2.025 4.91642,4.5 2.42903,2.475 4.19142,4.5 3.91642,4.5 -0.275,0 -2.48739,-2.025 -4.91642,-4.5 z m 15.40499,-1.75 -1.90499,-2.25 2.25,1.90499 c 1.2375,1.04774 2.25,2.06024 2.25,2.25 0,0.80025 -0.80479,0.20945 -2.59501,-1.90499 z M 294.48288,476.7154 c 0.048,-1.16495 0.28494,-1.4019 0.60416,-0.60417 0.28887,0.72187 0.25335,1.58438 -0.0789,1.91667 -0.33229,0.33229 -0.56864,-0.25834 -0.52522,-1.3125 z m 202.07894,-3.41667 c 0,-1.375 0.22698,-1.9375 0.50439,-1.25 0.27741,0.6875 0.27741,1.8125 0,2.5 -0.27741,0.6875 -0.50439,0.125 -0.50439,-1.25 z M 293.48288,468.7154 c 0.048,-1.16495 0.28494,-1.4019 0.60416,-0.60417 0.28887,0.72187 0.25335,1.58438 -0.0789,1.91667 -0.33229,0.33229 -0.56864,-0.25834 -0.52522,-1.3125 z m -0.70899,-17.41667 c 0,-5.775 0.16528,-8.1375 0.36728,-5.25 0.202,2.8875 0.202,7.6125 0,10.5 -0.202,2.8875 -0.36728,0.525 -0.36728,-5.25 z m 203.70899,7.41667 c 0.048,-1.16495 0.28494,-1.4019 0.60416,-0.60417 0.28887,0.72187 0.25335,1.58438 -0.0789,1.91667 -0.33229,0.33229 -0.56864,-0.25834 -0.52522,-1.3125 z m 149.89216,-7.16667 -6.47111,-6.75 6.75,6.47111 c 3.7125,3.55911 6.75,6.59661 6.75,6.75 0,0.73602 -1.01824,-0.20142 -7.02889,-6.47111 z m -78.15861,4.06689 c 0.72187,-0.28887 1.58438,-0.25335 1.91667,0.0789 0.33229,0.33229 -0.25834,0.56864 -1.3125,0.52522 -1.16495,-0.048 -1.4019,-0.28494 -0.60417,-0.60416 z m 32.1875,-8.6298 c 0,-0.1721 1.4625,-1.6346 3.25,-3.25 l 3.25,-2.93709 -2.93709,3.25 c -2.73778,3.02946 -3.56291,3.70965 -3.56291,2.93709 z m 15.92431,-8.43709 -2.42431,-2.75 2.75,2.42431 c 1.5125,1.33338 2.75,2.57088 2.75,2.75 0,0.78428 -0.8098,0.14598 -3.07569,-2.42431 z M 293.48288,431.7154 c 0.048,-1.16495 0.28494,-1.4019 0.60416,-0.60417 0.28887,0.72187 0.25335,1.58438 -0.0789,1.91667 -0.33229,0.33229 -0.56864,-0.25834 -0.52522,-1.3125 z m 329.35814,-4.66667 -2.93709,-3.25 3.25,2.93709 c 1.7875,1.6154 3.25,3.0779 3.25,3.25 0,0.77256 -0.82513,0.0924 -3.56291,-2.93709 z m -63.43709,-0.12756 c 0,-0.20765 0.7875,-0.99515 1.75,-1.75 1.58606,-1.24387 1.62143,-1.2085 0.37756,0.37756 -1.30637,1.66575 -2.12756,2.19548 -2.12756,1.37244 z m 60.07895,-5.20577 c 0.048,-1.16495 0.28494,-1.4019 0.60416,-0.60417 0.28887,0.72187 0.25335,1.58438 -0.0789,1.91667 -0.33229,0.33229 -0.56864,-0.25834 -0.52522,-1.3125 z m -23.32895,-10.07895 c 0.6875,-0.27741 1.8125,-0.27741 2.5,0 0.6875,0.27741 0.125,0.50439 -1.25,0.50439 -1.375,0 -1.9375,-0.22698 -1.25,-0.50439 z m 9.0625,-1.02083 c 0.72187,-0.28887 1.58438,-0.25335 1.91667,0.0789 0.33229,0.33229 -0.25834,0.56864 -1.3125,0.52522 -1.16495,-0.048 -1.4019,-0.28494 -0.60417,-0.60416 z m 18.26645,-3.90022 c 0.048,-1.16495 0.28494,-1.4019 0.60416,-0.60417 0.28887,0.72187 0.25335,1.58438 -0.0789,1.91667 -0.33229,0.33229 -0.56864,-0.25834 -0.52522,-1.3125 z m -107.884,-1.91667 c 0.0204,-1.65 0.2445,-2.20394 0.49804,-1.23097 0.25354,0.97297 0.23687,2.32297 -0.0371,3 -0.27393,0.67703 -0.48137,-0.11903 -0.46099,-1.76903 z m 105.67749,-6.25 c -1.24387,-1.58606 -1.2085,-1.62143 0.37756,-0.37756 0.9625,0.75485 1.75,1.54235 1.75,1.75 0,0.82304 -0.82119,0.29331 -2.12756,-1.37244 z m -181.05994,-0.93311 c 0.72187,-0.28887 1.58438,-0.25335 1.91667,0.0789 0.33229,0.33229 -0.25834,0.56864 -1.3125,0.52522 -1.16495,-0.048 -1.4019,-0.28494 -0.60417,-0.60416 z m 75.34539,-2.31689 c 0,-1.375 0.22698,-1.9375 0.50439,-1.25 0.27741,0.6875 0.27741,1.8125 0,2.5 -0.27741,0.6875 -0.50439,0.125 -0.50439,-1.25 z m -200.65789,-13 c 2.70865,-2.75 5.14982,-5 5.42482,-5 0.275,0 -1.71617,2.25 -4.42482,5 -2.70865,2.75 -5.14982,5 -5.42482,5 -0.275,0 1.71617,-2.25 4.42482,-5 z m 169.5,-16.5 c 1.29175,-1.375 2.57363,-2.5 2.84863,-2.5 0.275,0 -0.55688,1.125 -1.84863,2.5 -1.29175,1.375 -2.57363,2.5 -2.84863,2.5 -0.275,0 0.55688,-1.125 1.84863,-2.5 z m 19.87244,0.75 c -1.24387,-1.58606 -1.2085,-1.62143 0.37756,-0.37756 1.66575,1.30637 2.19548,2.12756 1.37244,2.12756 -0.20765,0 -0.99515,-0.7875 -1.75,-1.75 z m -7.87244,-2.62756 c 0,-0.20765 0.7875,-0.99515 1.75,-1.75 1.58606,-1.24387 1.62143,-1.2085 0.37756,0.37756 -1.30637,1.66575 -2.12756,2.19548 -2.12756,1.37244 z m -4,-6 c 0,-0.20765 0.7875,-0.99515 1.75,-1.75 1.58606,-1.24387 1.62143,-1.2085 0.37756,0.37756 -1.30637,1.66575 -2.12756,2.19548 -2.12756,1.37244 z m 15.75,-1.28472 c 0.6875,-0.27741 1.8125,-0.27741 2.5,0 0.6875,0.27741 0.125,0.50439 -1.25,0.50439 -1.375,0 -1.9375,-0.22698 -1.25,-0.50439 z m 31.5,-0.027 c 0.9625,-0.25152 2.5375,-0.25152 3.5,0 0.9625,0.25153 0.175,0.45733 -1.75,0.45733 -1.925,0 -2.7125,-0.2058 -1.75,-0.45733 z m -40.98097,-1.00366 c 0.97297,-0.25354 2.32297,-0.23687 3,0.0371 0.67703,0.27393 -0.11903,0.48137 -1.76903,0.46099 -1.65,-0.0204 -2.20394,-0.2445 -1.23097,-0.49804 z m 50.48097,0.0307 c 0.6875,-0.27741 1.8125,-0.27741 2.5,0 0.6875,0.27741 0.125,0.50439 -1.25,0.50439 -1.375,0 -1.9375,-0.22698 -1.25,-0.50439 z m 11.0625,-2.02083 c 0.72187,-0.28887 1.58438,-0.25335 1.91667,0.0789 0.33229,0.33229 -0.25834,0.56864 -1.3125,0.52522 -1.16495,-0.048 -1.4019,-0.28494 -0.60417,-0.60416 z m -213.3125,-10.31693 c 2.70865,-2.75 5.14982,-5 5.42482,-5 0.275,0 -1.71617,2.25 -4.42482,5 -2.70865,2.75 -5.14982,5 -5.42482,5 -0.275,0 1.71617,-2.25 4.42482,-5 z m 257.65789,-25 c 0,-1.375 0.22698,-1.9375 0.50439,-1.25 0.27741,0.6875 0.27741,1.8125 0,2.5 -0.27741,0.6875 -0.50439,0.125 -0.50439,-1.25 z m 0.0371,-8.5 c 0.0204,-1.65 0.2445,-2.20394 0.49804,-1.23097 0.25354,0.97297 0.23687,2.32297 -0.0371,3 -0.27393,0.67703 -0.48137,-0.11903 -0.46099,-1.76903 z M 440.21643,297.61562 c 0.72187,-0.28887 1.58438,-0.25335 1.91667,0.0789 0.33229,0.33229 -0.25834,0.56864 -1.3125,0.52522 -1.16495,-0.048 -1.4019,-0.28494 -0.60417,-0.60416 z m 5.9375,-0.97917 c 0.6875,-0.27741 1.8125,-0.27741 2.5,0 0.6875,0.27741 0.125,0.50439 -1.25,0.50439 -1.375,0 -1.9375,-0.22698 -1.25,-0.50439 z m 9,-1 c 0.6875,-0.27741 1.8125,-0.27741 2.5,0 0.6875,0.27741 0.125,0.50439 -1.25,0.50439 -1.375,0 -1.9375,-0.22698 -1.25,-0.50439 z m 15.9777,-1.05945 c 1.77523,-0.22091 4.92523,-0.22454 7,-0.008 2.07476,0.21648 0.6223,0.39722 -3.2277,0.40166 -3.85,0.004 -5.54754,-0.17268 -3.7723,-0.39359 z m 45.0848,0.0386 c 0.72187,-0.28887 1.58438,-0.25335 1.91667,0.0789 0.33229,0.33229 -0.25834,0.56864 -1.3125,0.52522 -1.16495,-0.048 -1.4019,-0.28494 -0.60417,-0.60416 z m 7,-1 c 0.72187,-0.28887 1.58438,-0.25335 1.91667,0.0789 0.33229,0.33229 -0.25834,0.56864 -1.3125,0.52522 -1.16495,-0.048 -1.4019,-0.28494 -0.60417,-0.60416 z m 66.59249,-13.56687 -1.90499,-2.25 2.25,1.90499 c 2.11444,1.79022 2.70524,2.59501 1.90499,2.59501 -0.18976,0 -1.20226,-1.0125 -2.25,-2.25 z m -39.21004,-11.25 c 0.0204,-1.65 0.2445,-2.20394 0.49804,-1.23097 0.25354,0.97297 0.23687,2.32297 -0.0371,3 -0.27393,0.67703 -0.48137,-0.11903 -0.46099,-1.76903 z m 1.6583,-4.75325 c 0.50384,-0.50384 1.98048,-0.74864 3.28141,-0.544 2.00169,0.31488 1.86084,0.45573 -0.91608,0.91609 -1.98722,0.32944 -2.92011,0.18269 -2.36533,-0.37209 z" id="path823"></path>
      <path style="fill:#33aed7" d="m 448.90393,903.76423 c -33.418,-4.37634 -66.69869,-14.63045 -94.5,-29.11636 -24.99184,-13.02203 -49.56844,-31.04315 -70.33934,-51.57725 -11.73249,-11.59874 -33.10655,-37.10246 -32.4595,-38.73096 0.16436,-0.41368 16.29974,-13.54897 35.85639,-29.18954 l 35.55755,-28.43741 4.77973,13.54301 c 2.62886,7.44866 8.61356,24.56801 13.29934,38.04301 26.68939,76.75124 31.37147,88.61899 37.39119,94.7761 2.5487,2.60688 3.94564,3.2239 7.2989,3.2239 5.48221,0 8.36537,-1.69824 22.33905,-13.1581 6.47718,-5.31196 17.51419,-14.24214 24.52669,-19.84486 7.0125,-5.60271 12.75,-10.50831 12.75,-10.90133 0,-0.39302 -6.8625,-1.98633 -15.25,-3.54068 -12.48259,-2.31324 -48.19585,-10.4771 -57.53964,-13.15325 -2.65554,-0.76057 -2.22936,0.18113 -14.04946,-31.04394 -11.49789,-30.37385 -14.82793,-39.54379 -20.72188,-57.06182 -2.62842,-7.81218 -5.18466,-13.95322 -5.68054,-13.64675 -2.39277,1.47881 20.96887,-33.63363 35.01961,-52.63433 0.19728,-0.26678 1.11542,0.4624 2.0403,1.6204 14.08903,17.64022 48.34966,61.03033 53.68161,67.98623 3.85,5.02259 12.4,16.00717 19,24.41019 32.65229,41.57239 82.8694,108.20123 96.61707,128.19302 8.70732,12.66214 8.79849,12.85682 6.44109,13.75311 -4.42969,1.68416 -27.97408,5.9767 -38.41411,7.00354 -13.97679,1.3747 -45.35142,1.09389 -57.64405,-0.51593 z m 99.06906,-9.7155 c -4.493,-21.55303 -5.94867,-57.41492 -3.11488,-76.73829 0.92622,-6.31579 1.81164,-11.61086 1.9676,-11.76682 0.3841,-0.38411 26.77921,-6.20769 28.23004,-6.22842 4.14566,-0.0593 20.91157,30.96405 26.20192,48.48353 4.14245,13.71809 6.57607,25.47019 5.49768,26.54858 -2.43101,2.43101 -21.88524,10.81037 -35.85142,15.44198 -5.91484,1.96155 -21.19845,6.50944 -21.87556,6.50944 -0.32249,0 -0.7974,-1.0125 -1.05538,-2.25 z m 62.58883,-46.75 c 0,-1.375 0.22698,-1.9375 0.50439,-1.25 0.27741,0.6875 0.27741,1.8125 0,2.5 -0.27741,0.6875 -0.50439,0.125 -0.50439,-1.25 z m 59.84211,-18.37756 c 0,-0.20765 0.7875,-0.99515 1.75,-1.75 1.58606,-1.24387 1.62143,-1.2085 0.37756,0.37756 -1.30637,1.66575 -2.12756,2.19548 -2.12756,1.37244 z M 576.48288,788.7154 c 0.048,-1.16495 0.28494,-1.4019 0.60416,-0.60417 0.28887,0.72187 0.25335,1.58438 -0.0789,1.91667 -0.33229,0.33229 -0.56864,-0.25834 -0.52522,-1.3125 z m -36.00719,-12.66667 c -3.36225,-14.86357 -4.00817,-22.75604 -4.04088,-49.375 -0.017,-13.81875 -0.30033,-26.47226 -0.62966,-28.11891 l -0.59878,-2.99391 -9.15122,-0.54464 c -23.01454,-1.36971 -69.29701,-18.21678 -127.65122,-46.46572 -10.175,-4.92566 -19.9625,-9.58222 -21.75,-10.3479 -3.2344,-1.38546 -3.25,-1.42651 -3.25,-8.55152 v -7.15937 l 5.25,-0.3678 c 5.61382,-0.39327 13.71611,2.1789 40.75,12.93662 28.12511,11.19195 72.83133,25.22299 98,30.75729 6.875,1.51173 12.69185,2.91771 12.92633,3.12439 0.23447,0.20668 1.60755,6.33394 3.05127,13.61613 l 2.62494,13.24034 13.69873,0.27822 c 10.56933,0.21466 13.71555,-0.0138 13.77235,-1 0.15295,-2.65587 3.961,14.28624 6.34334,28.22178 2.91292,17.03907 4.57486,33.92785 4.57962,46.53854 l 0.003,9.03854 -14.25,3.2367 c -7.8375,1.78018 -15.00056,3.22533 -15.91791,3.21145 -1.28116,-0.0194 -2.1531,-2.17012 -3.76033,-9.27523 z m 53.92824,-43.80902 c 0,-0.58246 0.45,-0.7809 1,-0.44098 0.55,0.33992 1,0.81648 1,1.05902 0,0.24254 -0.45,0.44098 -1,0.44098 -0.55,0 -1,-0.47656 -1,-1.05902 z m 0.5,-88.94098 c 0.99549,-1.1 2.03498,-2 2.30998,-2 0.275,0 -0.31449,0.9 -1.30998,2 -0.99549,1.1 -2.03498,2 -2.30998,2 -0.275,0 0.31449,-0.9 1.30998,-2 z m -100.09501,-30.25 -1.90499,-2.25 2.25,1.90499 c 2.11444,1.79022 2.70524,2.59501 1.90499,2.59501 -0.18976,0 -1.20226,-1.0125 -2.25,-2.25 z m 92.34501,1.58772 c 0.6875,-0.27741 1.8125,-0.27741 2.5,0 0.6875,0.27741 0.125,0.50439 -1.25,0.50439 -1.375,0 -1.9375,-0.22698 -1.25,-0.50439 z m -182.75,-5.71528 c 0,-0.20765 0.7875,-0.99515 1.75,-1.75 1.58606,-1.24387 1.62143,-1.2085 0.37756,0.37756 -1.30637,1.66575 -2.12756,2.19548 -2.12756,1.37244 z m 81.87244,-4.37244 c -1.24387,-1.58606 -1.2085,-1.62143 0.37756,-0.37756 0.9625,0.75485 1.75,1.54235 1.75,1.75 0,0.82304 -0.82119,0.29331 -2.12756,-1.37244 z m -34.05994,-46.93311 c 0.72187,-0.28887 1.58438,-0.25335 1.91667,0.0789 0.33229,0.33229 -0.25834,0.56864 -1.3125,0.52522 -1.16495,-0.048 -1.4019,-0.28494 -0.60417,-0.60416 z m -46.56032,-47.81689 c 0.0111,-2.2 0.21589,-2.98225 0.45508,-1.73834 0.23919,1.24391 0.23011,3.04391 -0.0202,4 -0.25029,0.95609 -0.446,-0.0617 -0.4349,-2.26166 z m 18.82677,-0.0833 c 0.048,-1.16495 0.28494,-1.4019 0.60416,-0.60417 0.28887,0.72187 0.25335,1.58438 -0.0789,1.91667 -0.33229,0.33229 -0.56864,-0.25834 -0.52522,-1.3125 z m 13.73355,-33.09978 c 0.72187,-0.28887 1.58438,-0.25335 1.91667,0.0789 0.33229,0.33229 -0.25834,0.56864 -1.3125,0.52522 -1.16495,-0.048 -1.4019,-0.28494 -0.60417,-0.60416 z m 224.13367,-8.06692 -3.44617,-3.75 3.75,3.44617 c 3.49042,3.20761 4.20979,4.05383 3.44617,4.05383 -0.16711,0 -1.85461,-1.6875 -3.75,-3.75 z m -85.19617,-12.91228 c 0.6875,-0.27741 1.8125,-0.27741 2.5,0 0.6875,0.27741 0.125,0.50439 -1.25,0.50439 -1.375,0 -1.9375,-0.22698 -1.25,-0.50439 z m 61.12244,-12.08772 c -1.24387,-1.58606 -1.2085,-1.62143 0.37756,-0.37756 0.9625,0.75485 1.75,1.54235 1.75,1.75 0,0.82304 -0.82119,0.29331 -2.12756,-1.37244 z m -18,-1 c -1.24387,-1.58606 -1.2085,-1.62143 0.37756,-0.37756 0.9625,0.75485 1.75,1.54235 1.75,1.75 0,0.82304 -0.82119,0.29331 -2.12756,-1.37244 z m 3.20651,-38.83333 c 0.048,-1.16495 0.28494,-1.4019 0.60416,-0.60417 0.28887,0.72187 0.25335,1.58438 -0.0789,1.91667 -0.33229,0.33229 -0.56864,-0.25834 -0.52522,-1.3125 z m -107.884,-3.91667 c 0.0204,-1.65 0.2445,-2.20394 0.49804,-1.23097 0.25354,0.97297 0.23687,2.32297 -0.0371,3 -0.27393,0.67703 -0.48137,-0.11903 -0.46099,-1.76903 z m 102.67749,-4.25 c -1.24387,-1.58606 -1.2085,-1.62143 0.37756,-0.37756 1.66575,1.30637 2.19548,2.12756 1.37244,2.12756 -0.20765,0 -0.99515,-0.7875 -1.75,-1.75 z m -128.37244,-35.25 c 0.99549,-1.1 2.03498,-2 2.30998,-2 0.275,0 -0.31449,0.9 -1.30998,2 -0.99549,1.1 -2.03498,2 -2.30998,2 -0.275,0 0.31449,-0.9 1.30998,-2 z m 114.65789,-46 c 0,-1.375 0.22698,-1.9375 0.50439,-1.25 0.27741,0.6875 0.27741,1.8125 0,2.5 -0.27741,0.6875 -0.50439,0.125 -0.50439,-1.25 z M 500.15393,295.593 c 1.2375,-0.23836 3.2625,-0.23836 4.5,0 1.2375,0.23835 0.225,0.43337 -2.25,0.43337 -2.475,0 -3.4875,-0.19502 -2.25,-0.43337 z" id="path821"></path>
      <path style="fill:#133a5c" d="m 378.48929,873.07483 c -6.01972,-6.15711 -10.7018,-18.02486 -37.39119,-94.7761 -4.68578,-13.475 -10.65983,-30.575 -13.27567,-38 l -4.75606,-13.5 4.87695,-6.7085 c 2.68232,-3.68967 4.96849,-6.61467 5.08038,-6.5 0.11188,0.11468 2.4798,6.9585 5.26204,15.2085 7.04074,20.87749 21.25097,59.2983 30.92501,83.61331 0.57185,1.43731 2.08676,2.91276 3.36646,3.27877 9.42806,2.69655 45.07876,10.84686 57.57672,13.16295 8.3875,1.55435 15.25,3.14766 15.25,3.54068 0,0.39302 -5.7375,5.29862 -12.75,10.90133 -7.0125,5.60272 -18.04951,14.5329 -24.52669,19.84486 -13.97368,11.45986 -16.85684,13.1581 -22.33905,13.1581 -3.35326,0 -4.7502,-0.61702 -7.2989,-3.2239 z m 233.52153,-8.0261 c -0.30376,-3.4375 -0.81114,-11.875 -1.12752,-18.75 -1.24268,-27.00369 -6.7539,-73.56878 -11.57862,-97.82938 -3.20232,-16.10254 -4.90075,-20.78076 -4.90075,-13.49884 0,8.09862 -4.6991,23.39868 -11.04453,35.9605 -5.5801,11.04673 -6.17734,12.84552 -6.67482,20.10354 l -0.54636,7.97126 -13.11714,2.7966 c -7.21443,1.53812 -14.05753,2.9927 -15.20689,3.2324 -1.77383,0.36992 -2.60525,-0.72526 -5.5,-7.2449 l -3.41026,-7.68071 -10,-5.03145 c -26.16353,-13.16406 -46.84507,-28.08512 -67.56941,-48.74912 -12.00063,-11.96569 -21.93059,-23.45333 -21.93059,-25.37077 0,-1.8333 2.95224,-0.0579 9.38695,5.64493 14.94115,13.24185 42.56612,31.91372 61.61305,41.64459 l 11.5,5.87523 -0.29882,-34.41194 -0.29882,-34.41194 h 6.92382 6.92382 l 0.625,3.125 c 0.34375,1.71875 0.63889,14.43125 0.65588,28.25 0.0327,26.61896 0.67863,34.51143 4.04088,49.375 1.60723,7.10511 2.47917,9.25585 3.76033,9.27523 0.91735,0.0139 8.08041,-1.43127 15.91791,-3.21145 l 14.25,-3.2367 -8.4e-4,-9.03854 c -0.002,-20.14496 -3.47955,-45.05705 -10.61487,-76.03854 -7.59115,-32.96072 -13.98343,-42.6048 -39.29658,-59.28705 -8.02324,-5.28759 -17.11321,-11.53365 -20.19994,-13.88013 -13.28484,-10.09892 -25.1502,-24.28357 -31.88777,-38.12077 l -2.5,-5.13435 -9.63953,-0.0388 c -10.93596,-0.0441 -23.18417,-2.10043 -32.36948,-5.43451 l -6.25487,-2.2704 -0.63455,5.39901 c -0.84113,7.15669 -4.84487,18.41273 -8.66919,24.37243 -4.28384,6.67578 -14.6813,16.13543 -21.28774,19.36766 -3.22906,1.57983 -8.00156,2.93033 -11.46533,3.24442 l -5.93371,0.53805 -1.74705,-5.37776 c -4.39153,-13.51802 -9.40741,-21.03352 -35.49855,-53.189 -14.65077,-18.05604 -23.41353,-32.27388 -30.23943,-49.06441 -9.77292,-24.03968 -13.30638,-44.08428 -12.44967,-70.62439 0.91026,-28.19882 6.6287,-45.30798 19.88931,-59.5073 3.79871,-4.06763 8.4752,-8.36504 10.39219,-9.54981 2.31112,-1.42835 4.52281,-4.22429 6.56442,-8.2985 4.77664,-9.53218 10.91716,-17.5507 20.06863,-26.20633 22.77094,-21.53718 53.12823,-35.85197 90.27455,-42.56842 10.35169,-1.8717 16.34035,-2.20798 43.59852,-2.44821 38.71579,-0.34121 46.3024,-1.47308 56.38901,-8.41285 5.54789,-3.81705 9.23471,-9.95348 10.25115,-17.06226 0.71623,-5.00915 1.00499,-5.47232 3.59743,-5.77021 3.78463,-0.43489 15.77271,3.27314 23.16374,7.16477 8.79063,4.62857 17.52361,13.81096 22.16058,23.30103 3.74381,7.66211 3.83957,8.13243 3.83957,18.85809 0,10.05454 -0.2351,11.44588 -2.73523,16.18761 -1.50438,2.85319 -5.03023,7.48262 -7.83524,10.28762 l -5.1,5.1 8.24908,14.71239 c 11.46784,20.4531 18.0539,30.94528 22.83215,36.37366 4.84047,5.49907 5.24856,9.16001 2.05466,18.43217 -1.11902,3.2486 -1.90652,6.62962 -1.75,7.51338 0.15652,0.88376 12.20958,14.08265 26.78458,29.33087 14.575,15.24823 27.04655,28.70015 27.71456,29.89317 3.26268,5.8269 0.99974,10.09754 -9.9216,18.72419 -11.51741,9.09748 -11.90186,9.98024 -8.27264,18.9954 1.56184,3.87971 3.20871,7.28207 3.6597,7.5608 1.37593,0.85037 0.91498,7.12166 -0.78557,10.68776 -1.51687,3.18091 -1.48925,3.59482 0.5,7.49409 2.6353,5.16561 2.66571,11.3756 0.0836,17.06609 -2.59775,5.72492 -2.49653,7.77225 0.58394,11.81095 6.50398,8.52715 9.8136,21.56884 7.5739,29.84523 -3.89984,14.41113 -16.23557,22.38916 -38.63588,24.98745 -14.12931,1.63891 -29.90509,9.09522 -35.91544,16.97519 -1.45309,1.9051 -3.97871,6.2894 -5.61248,9.7429 -2.95474,6.24575 -2.97039,6.37462 -2.94917,24.27908 l 0.0213,18 10.72788,7.74049 c 5.90033,4.25728 19.95288,14.17456 31.22788,22.03841 11.275,7.86385 26.8,18.79387 34.5,24.28893 7.7,5.49506 20.3,14.35486 28,19.68844 7.7,5.33358 15.2491,10.72034 16.77578,11.97057 l 2.7758,2.27316 -9.24324,11.5 c -10.87233,13.52683 -32.18296,35.64468 -42.80832,44.42983 -12.59207,10.41126 -40.49965,29.57017 -43.073,29.57017 -0.4223,0 -1.01634,-2.8125 -1.32011,-6.25 z m 31.59769,-252.1677 c 5.72125,-2.11523 11.43404,-8.13907 12.3502,-13.02264 1.02867,-5.48327 -0.12258,-9.33038 -5.55329,-18.55736 -5.70434,-9.69187 -6.37556,-14.38858 -3.00149,-21.0023 2.43132,-4.76577 2.58661,-10.69432 0.34501,-13.17126 -2.01924,-2.23123 -8.28843,-2.39912 -16.59501,-0.4444 -3.1625,0.7442 -5.75,1.03261 -5.75,0.64091 0,-1.80304 17.66931,-14.74835 22.18471,-16.25349 0.52155,-0.17385 -0.9592,-4.69361 -3.29054,-10.04392 -3.78566,-8.68792 -4.51435,-9.72824 -6.81648,-9.73158 -3.45527,-0.005 -8.66003,-3.29113 -9.34177,-5.89809 -0.94892,-3.62867 2.24348,-5.72986 18.51408,-12.18567 8.6625,-3.43708 15.75,-6.72225 15.75,-7.30035 0,-0.57811 -9.12726,-10.28985 -20.2828,-21.58163 -11.15554,-11.29179 -22.49581,-22.97025 -25.2006,-25.95214 l -4.9178,-5.42161 -2.0494,2.87895 c -10.68569,15.01102 -25.0815,21.80579 -41.29751,19.4923 -10.45424,-1.49147 -23.82862,-4.14839 -25.22434,-5.01099 -2.0661,-1.27692 4.04438,-10.90246 12.03408,-18.95669 10.31755,-10.40089 24.04089,-16.61464 42.05201,-19.04062 13.26921,-1.78728 12.88719,-1.63042 12.88009,-5.28877 -0.005,-2.35203 -1.55317,-5.32987 -5.69279,-10.94669 -3.12758,-4.24365 -10.68521,-16.39365 -16.79472,-27 -8.6527,-15.0214 -11.53904,-19.2608 -13.05721,-19.17814 -1.07196,0.0584 -6.44901,1.30359 -11.94901,2.76717 -14.94047,3.97574 -34.57139,5.35429 -53.04347,3.7249 l -14.67083,-1.2941 -6.32205,6.30903 c -6.81761,6.80356 -16.67447,13.25062 -25.46365,16.65496 -3.025,1.17169 -12.61182,4.18146 -21.30405,6.68838 -8.69223,2.50693 -17.4769,5.41147 -19.52149,6.45454 -6.15582,3.14046 -13.69647,9.28922 -17.89151,14.589 l -3.95775,5 6.5874,-3.2235 c 3.78176,-1.85059 12.33718,-4.53846 20.0874,-6.31089 30.20463,-6.90765 36.08166,-8.8085 46.72005,-15.111 5.49837,-3.25739 20.08421,-16.87064 23.44049,-21.87746 l 1.66054,-2.47715 3.64804,3.5 c 7.47873,7.17523 12.49982,21.22893 12.51901,35.0399 0.0158,11.37298 -1.70829,17.4039 -9.95231,34.81326 -3.81472,8.05576 -7.46743,16.80682 -8.11713,19.44679 -1.78223,7.24184 -0.74287,23.06716 1.90787,29.04925 2.91464,6.57765 8.47121,13.95872 13.06051,17.34891 2.09181,1.54526 3.58863,3.40576 3.33744,4.14834 -0.75488,2.23154 -11.91951,8.88899 -18.67956,11.13859 -7.92663,2.63781 -17.42677,3.1569 -18.57547,1.01496 -0.44244,-0.825 -3.04614,-6.225 -5.78598,-12 -2.73985,-5.775 -6.81998,-12.58609 -9.06696,-15.13577 -8.76741,-9.94849 -20.66269,-14.86246 -31.39949,-12.97121 -13.53102,2.38344 -22.84203,12.08799 -25.74243,26.83045 -2.38569,12.12623 3.40158,27.58183 14.52538,38.79178 11.09689,11.18283 25.14718,16.25501 41.58084,15.01076 l 8.58083,-0.64969 5.88031,9.31184 c 8.49144,13.44671 19.57226,24.17599 30.95802,29.97585 15.82438,8.06087 36.75691,13.80284 59.39165,16.29162 7.48459,0.82296 14.95835,1.68597 16.60835,1.9178 1.65,0.23183 14.7,0.31501 29,0.18486 21.82455,-0.19864 26.75553,-0.51597 30.70458,-1.97599 z M 449.6546,536.75359 c -10.5803,-2.84903 -17.60072,-8.34021 -22.20736,-17.36996 -4.39218,-8.60939 -1.73843,-19.64303 5.44647,-22.64508 6.30384,-2.63391 11.43286,-1.38849 16.46551,3.99814 2.11728,2.2662 2.53037,3.87243 3.00056,11.66719 0.53365,8.84676 0.61976,9.10096 4.04471,11.94012 1.92469,1.59551 3.76471,2.91303 4.08892,2.92783 0.79133,0.0361 2.91052,4.7707 2.91052,6.50252 0,2.26486 -2.95618,4.52897 -5.82143,4.45857 -1.47321,-0.0362 -5.04077,-0.7019 -7.9279,-1.47933 z" id="path819"></path>
    </g>
  </g>
</svg></svg></g></svg>