<?xml version="1.0" standalone="no"?>
<!DOCTYPE svg PUBLIC "-//W3C//DTD SVG 20010904//EN"
 "http://www.w3.org/TR/2001/REC-SVG-20010904/DTD/svg10.dtd">
<svg version="1.0" xmlns="http://www.w3.org/2000/svg"
 width="892.000000pt" height="892.000000pt" viewBox="0 0 892.000000 892.000000"
 preserveAspectRatio="xMidYMid meet">
<metadata>
Created by potrace 1.14, written by Peter Selinger 2001-2017
</metadata>
<g transform="translate(0.000000,892.000000) scale(0.100000,-0.100000)"
fill="#000000" stroke="none">
<path d="M5467 8889 c-9 -13 -20 -50 -26 -81 -18 -102 -66 -172 -155 -230
-129 -83 -223 -95 -817 -108 -379 -7 -448 -11 -544 -30 -292 -57 -509 -126
-730 -234 -358 -174 -638 -418 -787 -684 -29 -53 -70 -112 -92 -131 -230 -211
-293 -294 -355 -467 -96 -265 -116 -728 -45 -1067 51 -248 176 -563 304 -767
61 -99 194 -277 380 -510 226 -283 295 -391 351 -545 26 -71 34 -112 38 -194
5 -78 10 -106 21 -112 33 -18 642 -304 735 -346 55 -24 114 -50 130 -58 51
-23 315 -130 425 -173 254 -98 588 -196 714 -209 45 -5 54 -8 38 -14 l-21 -8
6 -471 c3 -258 3 -470 -2 -470 -4 0 -71 33 -149 73 -250 130 -543 322 -769
506 -179 145 -199 161 -208 161 -43 0 68 -138 285 -355 306 -305 559 -487 978
-705 l107 -55 32 -73 c18 -41 43 -89 55 -108 l24 -35 -21 -127 c-40 -237 -26
-738 27 -1035 9 -48 19 -87 23 -87 4 0 76 20 159 45 212 64 418 143 564 216
63 32 78 44 78 62 0 64 -76 346 -130 482 -63 159 -214 439 -269 498 -23 25
-26 35 -23 85 8 137 20 181 87 325 82 173 141 347 159 464 13 84 14 87 25 58
26 -64 80 -371 130 -740 24 -176 61 -561 71 -745 14 -258 27 -391 37 -401 17
-17 285 159 538 354 133 102 365 329 525 512 122 139 264 314 259 318 -2 2
-22 17 -44 34 -40 31 -337 240 -965 681 -184 129 -420 296 -523 370 l-188 134
3 253 3 252 52 106 c43 85 64 115 110 156 106 95 285 167 473 191 119 15 265
62 335 108 74 47 120 99 154 172 23 49 26 67 25 160 0 119 -24 196 -88 293
-56 84 -58 95 -31 172 42 118 41 169 -6 282 -11 28 -11 39 3 80 26 75 28 107
12 139 -43 82 -74 170 -74 209 0 42 3 47 77 112 158 141 186 169 203 207 21
45 14 81 -24 130 -13 17 -152 166 -307 332 -354 374 -429 458 -429 476 0 8 11
51 25 97 40 136 35 178 -33 261 -83 101 -146 200 -314 498 -72 127 -107 200
-102 208 5 6 38 45 74 87 36 41 79 99 95 129 29 51 30 59 33 198 3 127 1 153
-17 204 -55 158 -201 328 -346 403 -85 44 -210 87 -287 98 -42 6 -48 5 -61
-16z m336 -1193 c13 -14 78 -118 146 -233 68 -114 167 -273 219 -352 80 -121
96 -152 96 -185 l1 -41 -65 -12 c-36 -6 -116 -21 -178 -33 -259 -47 -445 -153
-588 -334 -74 -93 -112 -162 -96 -178 5 -5 74 -23 153 -40 193 -41 361 -45
461 -10 82 29 191 104 251 174 25 29 56 65 69 80 l23 27 287 -298 c158 -164
315 -328 348 -364 l61 -66 -50 -26 c-28 -14 -103 -47 -168 -73 -228 -94 -273
-124 -258 -172 9 -29 64 -67 113 -79 24 -5 50 -17 57 -28 20 -26 95 -208 95
-230 0 -11 -18 -28 -48 -45 -59 -33 -199 -137 -231 -172 l-24 -26 29 0 c16 0
47 5 69 10 22 5 73 10 114 11 63 1 77 -2 95 -20 30 -30 29 -109 -3 -181 -43
-97 -37 -137 47 -302 67 -131 73 -148 72 -204 0 -49 -5 -69 -29 -106 -33 -51
-78 -89 -137 -114 -85 -36 -686 -44 -964 -13 -599 67 -955 199 -1181 436 -62
65 -154 188 -212 283 l-39 63 -101 -7 c-289 -19 -519 84 -672 299 -149 209
-168 446 -51 629 112 175 332 239 523 151 80 -36 155 -96 205 -162 24 -31 79
-126 123 -212 l80 -156 68 -3 c38 -2 95 4 130 12 77 20 233 96 283 140 l38 33
-70 69 c-162 159 -216 304 -201 539 7 99 22 144 137 395 34 74 73 167 86 207
81 241 23 558 -131 720 l-55 58 -21 -30 c-35 -48 -217 -223 -283 -272 -130
-96 -228 -132 -600 -223 -247 -61 -333 -87 -415 -130 l-44 -22 22 30 c54 77
181 187 260 226 50 25 176 67 421 141 85 26 193 66 240 90 103 52 235 148 307
223 l53 56 152 -12 c344 -27 566 -10 852 63 113 30 103 30 129 1z m-2045
-3066 c128 -43 301 -70 443 -70 l118 0 50 -97 c51 -98 154 -245 227 -323 84
-91 210 -191 410 -327 326 -221 404 -297 490 -478 39 -82 124 -353 124 -395 0
-10 -10 -20 -22 -24 -30 -8 -196 -8 -290 0 l-75 7 -28 141 c-15 77 -32 160
-38 183 l-11 42 -210 51 c-420 102 -930 263 -1355 429 -255 100 -430 161 -461
161 -33 0 -31 18 3 24 132 25 346 205 421 355 35 69 76 197 89 279 6 39 15 72
19 72 4 0 47 -13 96 -30z"/>
<path d="M3830 5691 c-93 -30 -149 -140 -125 -246 37 -164 178 -288 375 -329
88 -18 135 -6 146 39 8 32 -21 102 -45 110 -10 3 -34 23 -55 44 -37 38 -38 39
-47 152 -11 130 -24 159 -86 203 -44 31 -115 43 -163 27z"/>
<path d="M2768 3213 c-132 -187 -306 -450 -343 -518 -12 -22 -50 -80 -86 -128
-56 -77 -91 -110 -278 -260 -118 -95 -227 -181 -242 -192 -25 -18 -141 -112
-414 -335 -55 -45 -102 -86 -103 -91 -5 -13 17 -46 104 -154 164 -207 379
-430 574 -594 572 -484 1187 -765 1955 -893 98 -16 185 -21 470 -25 386 -6
482 2 802 67 154 31 163 34 163 55 0 58 -760 1077 -1673 2245 -117 149 -238
304 -302 385 -113 142 -342 432 -418 528 -38 48 -73 87 -77 87 -4 0 -63 -80
-132 -177z"/>
</g>
</svg>
